<svg width="18" height="18" viewBox="0 0 18 18" fill="none" xmlns="http://www.w3.org/2000/svg">
<path d="M17.6748 4.00649L16.0955 2.42717C15.879 2.21045 15.6156 2.10205 15.306 2.10205C14.9962 2.10205 14.7328 2.21045 14.5162 2.42717L6.89806 10.0568L3.48385 6.631C3.26705 6.4142 3.00384 6.30593 2.69427 6.30593C2.38449 6.30593 2.12128 6.4142 1.90448 6.631L0.325155 8.21037C0.108358 8.42713 0 8.69041 0 9.00015C0 9.30965 0.108358 9.57318 0.325155 9.7899L4.52895 13.9936L6.1084 15.5729C6.32507 15.7898 6.58836 15.8981 6.89806 15.8981C7.20764 15.8981 7.47093 15.7895 7.68772 15.5729L9.26713 13.9936L17.6748 5.58594C17.8914 5.36914 18 5.10589 18 4.79615C18.0002 4.48658 17.8914 4.22329 17.6748 4.00649Z" fill="#72A479"/>
</svg>
