<svg width="155" height="132" viewBox="0 0 155 132" fill="none" xmlns="http://www.w3.org/2000/svg">
<path d="M26.4391 102.185C25.8942 102.477 16.4 111.613 13.0047 115.484C23.4211 115.234 28.2206 114.423 28.3254 116.837C28.3883 117.981 27.3194 118.668 26.1038 118.668C25.3283 118.668 24.2594 118.585 23.484 118.585C19.4809 118.585 13.7592 118.793 9.75609 118.793C8.49857 118.793 7.42969 118.19 7.42969 117.003C7.42969 115.546 9.00158 113.923 10.0705 112.716C13.8849 108.2 16.903 104.391 20.5498 101.457C16.0856 101.727 10.0286 101.644 9.92376 101.644C9.33692 101.644 8.83391 101.498 8.41474 101.186C7.95365 100.853 7.72311 100.395 7.72311 99.8334C7.72311 98.6263 8.75008 98.002 10.7831 98.002C11.4747 98.002 12.5017 98.0436 13.8849 98.106C15.2682 98.1893 28.4092 97.4817 28.4092 99.8542C28.4302 100.583 27.7595 101.353 26.4391 102.185Z" fill="white"/>
<path d="M14.5033 13.1294C14.0842 13.3583 6.8325 20.3303 4.23363 23.2856C12.1979 23.0983 15.8447 22.474 15.9495 24.3262C15.9914 25.2003 15.195 25.7206 14.2518 25.7206C13.665 25.7206 12.8476 25.6582 12.2608 25.6582C9.20082 25.6582 4.84143 25.8039 1.76052 25.8039C0.796428 25.8039 0 25.346 0 24.4303C0 23.3064 1.2156 22.0785 2.03298 21.1628C4.94622 17.708 7.25167 14.8151 10.0392 12.5674C6.62291 12.7756 2.01202 12.7131 1.92819 12.7131C1.4671 12.7131 1.08985 12.5883 0.775467 12.3593C0.419171 12.1096 0.251502 11.7558 0.251502 11.3187C0.251502 10.3822 1.02697 9.92432 2.57791 9.92432C3.10187 9.92432 3.8983 9.94513 4.94623 10.0076C5.99416 10.07 16.0333 9.52889 16.0333 11.3395C16.0333 11.9223 15.5094 12.505 14.5033 13.1294Z" fill="white"/>
<path d="M152.982 3.66291C152.5 3.93347 144.242 11.8836 141.287 15.2344C150.341 15.0054 154.512 14.3187 154.617 16.4207C154.659 17.4196 153.737 18.0024 152.689 18.0024C152.018 18.0024 151.075 17.9191 150.404 17.9191C146.904 17.9191 141.937 18.0856 138.458 18.0856C137.368 18.0856 136.446 17.5653 136.446 16.5247C136.446 15.2552 137.829 13.8608 138.751 12.7994C142.084 8.86591 144.703 5.5568 147.868 2.99693C143.991 3.24667 138.73 3.16342 138.625 3.16342C138.102 3.16342 137.682 3.03855 137.326 2.768C136.928 2.47663 136.718 2.0812 136.718 1.58171C136.718 0.520301 137.599 0 139.38 0C139.988 0 140.889 0.041624 142.084 0.10406C143.278 0.166496 154.722 -0.457863 154.722 1.62334C154.722 2.28932 154.135 2.9553 152.982 3.66291Z" fill="white"/>
<g clip-path="url(#clip0_69_737)">
<path d="M23.5566 131.497V50.7191C23.5566 22.7576 46.639 0 74.9995 0C103.36 0 126.442 22.7576 126.442 50.7191V131.497H23.5566Z" fill="#72A479"/>
<path d="M74.9995 7.76709C50.9718 7.76709 31.4346 27.0295 31.4346 50.7191V123.73H118.643V50.7191C118.643 27.0295 99.1059 7.76709 74.9995 7.76709Z" fill="#3C3837"/>
<g clip-path="url(#clip1_69_737)">
<path d="M86.0964 33.0999C86.3122 33.046 86.5279 33.0999 86.7167 33.2348C87.4178 33.828 88.2268 34.3134 89.1168 34.637C89.9527 34.9606 90.8696 35.1225 91.8404 35.1225C94.0248 35.1225 96.0203 34.2325 97.4496 32.8033C98.8789 31.374 99.7688 29.3785 99.7688 27.1941C99.7688 26.2772 99.607 25.3873 99.3373 24.5783C99.0407 23.7154 98.6092 22.9333 98.0429 22.2591C97.8002 21.9625 97.8541 21.531 98.1508 21.2883C98.3395 21.1535 98.5553 21.0995 98.771 21.1535C101.063 21.7737 103.059 23.149 104.488 24.9828C105.863 26.7896 106.672 29.0279 106.672 31.4549C106.672 34.3943 105.486 37.0641 103.544 39.0057C101.603 40.9474 98.9598 42.1339 95.9934 42.1339C93.5124 42.1339 91.2202 41.271 89.3864 39.8417C87.5257 38.3855 86.1773 36.309 85.611 33.9359C85.5032 33.5584 85.7189 33.1808 86.0964 33.0999Z" fill="white"/>
</g>
<path d="M122.582 65.2432H27.417V75.3404H122.582V65.2432Z" fill="#72A479"/>
<path d="M69.9448 5.42441L69.9448 128.533H80.1861V5.42441H69.9448Z" fill="#72A479"/>
<path d="M88.5497 45.9814C89.1588 45.9814 89.6526 45.4946 89.6526 44.894C89.6526 44.2935 89.1588 43.8066 88.5497 43.8066C87.9406 43.8066 87.4468 44.2935 87.4468 44.894C87.4468 45.4946 87.9406 45.9814 88.5497 45.9814Z" fill="#F7E9D9"/>
<path d="M107.539 45.1277C108.018 45.1277 108.406 44.7452 108.406 44.2733C108.406 43.8015 108.018 43.4189 107.539 43.4189C107.06 43.4189 106.672 43.8015 106.672 44.2733C106.672 44.7452 107.06 45.1277 107.539 45.1277Z" fill="#F7E9D9"/>
<path d="M103.66 55.9816C104.051 55.9816 104.369 55.6686 104.369 55.2825C104.369 54.8965 104.051 54.5835 103.66 54.5835C103.268 54.5835 102.951 54.8965 102.951 55.2825C102.951 55.6686 103.268 55.9816 103.66 55.9816Z" fill="#F7E9D9"/>
<path d="M52.8623 38.3696C52.8623 39.457 51.9957 40.3114 50.8928 40.3114C49.7899 40.3114 48.9233 39.457 48.9233 38.3696C48.9233 37.2822 49.7899 36.4279 50.8928 36.4279C51.9957 36.3502 52.8623 37.2822 52.8623 38.3696Z" fill="#F7E9D9"/>
<path d="M56.7227 51.185C56.7227 51.7287 56.3288 52.117 55.7774 52.117C55.2259 52.117 54.832 51.7287 54.832 51.185C54.832 50.6413 55.2259 50.2529 55.7774 50.2529C56.2501 50.2529 56.7227 50.6413 56.7227 51.185Z" fill="#F7E9D9"/>
<path d="M94.1426 110.681C94.9258 110.681 95.5607 110.055 95.5607 109.283C95.5607 108.511 94.9258 107.885 94.1426 107.885C93.3595 107.885 92.7246 108.511 92.7246 109.283C92.7246 110.055 93.3595 110.681 94.1426 110.681Z" fill="#F7E9D9"/>
<path d="M37.5794 112.234C38.7976 112.234 39.7852 111.261 39.7852 110.06C39.7852 108.858 38.7976 107.885 37.5794 107.885C36.3611 107.885 35.3735 108.858 35.3735 110.06C35.3735 111.261 36.3611 112.234 37.5794 112.234Z" fill="#F7E9D9"/>
</g>
<defs>
<clipPath id="clip0_69_737">
<rect width="102.964" height="131.497" fill="white" transform="translate(23.5566)"/>
</clipPath>
<clipPath id="clip1_69_737">
<rect width="21.0891" height="21.0891" fill="white" transform="matrix(-1 0 0 1 106.672 21.0889)"/>
</clipPath>
</defs>
</svg>
