<svg width="9" height="10" viewBox="0 0 9 10" fill="none" xmlns="http://www.w3.org/2000/svg">
<path d="M8.60349 7.14369L6.53113 5.07133L8.60349 2.99898C9.11263 2.48984 9.10176 1.64546 8.59243 1.13613C8.0831 0.626803 7.23872 0.615935 6.72958 1.12508L4.65723 3.19743L2.58487 1.12508C2.07573 0.615935 1.23135 0.626803 0.722023 1.13613C0.212695 1.64546 0.201827 2.48984 0.710967 2.99898L2.78332 5.07133L0.710968 7.14369C0.201827 7.65283 0.212695 8.49721 0.722023 9.00654C1.23135 9.51587 2.07573 9.52673 2.58487 9.01759L4.65723 6.94524L6.72958 9.01759C7.23872 9.52673 8.0831 9.51587 8.59243 9.00654C9.10176 8.49721 9.11263 7.65283 8.60349 7.14369Z" fill="white"/>
</svg>
