<svg width="12" height="12" viewBox="0 0 12 12" fill="none" xmlns="http://www.w3.org/2000/svg">
<path d="M10.2771 4.69675H7.34632V1.766C7.34632 1.04596 6.74157 0.456581 6.02127 0.456581C5.30097 0.456581 4.69622 1.04596 4.69622 1.766V4.69675H1.76547C1.04544 4.69675 0.456055 5.3015 0.456055 6.0218C0.456055 6.7421 1.04544 7.34685 1.76547 7.34685H4.69622V10.2776C4.69622 10.9976 5.30097 11.587 6.02127 11.587C6.74157 11.587 7.34632 10.9976 7.34632 10.2776V7.34685H10.2771C10.9971 7.34685 11.5865 6.7421 11.5865 6.0218C11.5865 5.3015 10.9971 4.69675 10.2771 4.69675Z" fill="white"/>
</svg>
